<svg width="24" height="24" viewBox="0 0 24 24" fill="none" xmlns="http://www.w3.org/2000/svg">
<path d="M21.3333 0H2.66667C1.18667 0 0 1.2 0 2.66667V21.3333C0 22.8 1.18667 24 2.66667 24H21.3333C22.8 24 24 22.8 24 21.3333V2.66667C24 1.2 22.8 0 21.3333 0ZM17.3333 13.3333H13.3333V17.3333C13.3333 18.0667 12.7333 18.6667 12 18.6667C11.2667 18.6667 10.6667 18.0667 10.6667 17.3333V13.3333H6.66667C5.93333 13.3333 5.33333 12.7333 5.33333 12C5.33333 11.2667 5.93333 10.6667 6.66667 10.6667H10.6667V6.66667C10.6667 5.93333 11.2667 5.33333 12 5.33333C12.7333 5.33333 13.3333 5.93333 13.3333 6.66667V10.6667H17.3333C18.0667 10.6667 18.6667 11.2667 18.6667 12C18.6667 12.7333 18.0667 13.3333 17.3333 13.3333Z" fill="url(#paint0_radial_90_25)"/>
<defs>
<radialGradient id="paint0_radial_90_25" cx="0" cy="0" r="1" gradientUnits="userSpaceOnUse" gradientTransform="translate(24 24) rotate(-135) scale(33.9411 20.5955)">
<stop stop-color="#FFB646"/>
<stop offset="1" stop-color="#FFDF6C"/>
</radialGradient>
</defs>
</svg>
