<svg width="12" height="12" viewBox="0 0 12 13" fill="none" xmlns="http://www.w3.org/2000/svg">
<circle cx="6" cy="6.5" r="5.25" fill="#FC6363"/>
<path d="M8.08661 3.61788C8.30629 3.39821 8.66246 3.39821 8.88214 3.61788C9.10178 3.83755 9.10178 4.1937 8.88214 4.41339L6.79549 6.5L8.88214 8.58661C9.10178 8.80629 9.10178 9.16246 8.88214 9.38214C8.66246 9.60178 8.30629 9.60178 8.08661 9.38214L6 7.29549L3.91339 9.38214C3.6937 9.60178 3.33755 9.60178 3.11788 9.38214C2.89821 9.16246 2.89821 8.80629 3.11788 8.58661L5.20451 6.5L3.11788 4.41339C2.89821 4.1937 2.89821 3.83755 3.11788 3.61788C3.33755 3.39821 3.6937 3.39821 3.91339 3.61788L6 5.70451L8.08661 3.61788Z" fill="#FDFDFD"/>
</svg>
