<svg width="25" height="24" viewBox="0 0 25 24" fill="none" xmlns="http://www.w3.org/2000/svg">
<path d="M8.16666 4C5.03705 4 2.5 6.53706 2.5 9.66666V14.3333C2.5 17.4629 5.03705 20 8.16666 20C9.90568 20 11.4611 19.2164 12.5 17.9849C13.5389 19.2164 15.0943 20 16.8333 20C19.9629 20 22.5 17.4629 22.5 14.3333V9.66666C22.5 6.53706 19.9629 4 16.8333 4C15.0943 4 13.5389 4.78358 12.5 6.01513C11.4611 4.78358 9.90568 4 8.16666 4Z" fill="#BDBDBD"/>
<path d="M8.16668 4.66663C5.40526 4.66663 3.16669 6.90522 3.16669 9.66662V14.3333C3.16669 17.0947 5.40526 19.3333 8.16668 19.3333C10.019 19.3333 11.636 18.326 12.5 16.8294C13.364 18.326 14.981 19.3333 16.8334 19.3333C19.5948 19.3333 21.8334 17.0947 21.8334 14.3333V9.66662C21.8334 6.90522 19.5948 4.66663 16.8334 4.66663C14.981 4.66663 13.364 5.67387 12.5 7.17049C11.636 5.67387 10.019 4.66663 8.16668 4.66663Z" fill="#FDFDFD"/>
<path d="M11.8334 9.66666C11.8334 8.75753 12.076 7.90513 12.5001 7.17053C11.9319 6.18627 11.0379 5.41363 9.96552 5H9.85419C10.5834 5.4375 11.1459 7.16666 11.1459 8V16.0833C11.1459 16.9998 11.0417 18.1454 9.85485 19.0412C10.9763 18.639 11.9124 17.8474 12.5001 16.8295C12.076 16.0949 11.8334 15.2425 11.8334 14.3333V9.66666Z" fill="#ECECEC"/>
<path d="M21.8333 9.66666C21.8333 7.53933 20.5048 5.72231 18.6321 5H18.5208C19.625 5.72917 20.4583 7.04166 20.4583 8.0208V16C20.4583 16.9165 19.7086 18.1454 18.5215 19.0412C20.4522 18.3487 21.8333 16.5023 21.8333 14.3333V9.66666Z" fill="#ECECEC"/>
<path d="M6.20833 8C4.91967 8 3.875 9.04467 3.875 10.3333V13.6667C3.875 14.9553 4.91967 16 6.20833 16C7.497 16 8.54168 14.9553 8.54168 13.6667V10.3333C8.54168 9.04467 7.497 8 6.20833 8Z" fill="#202020"/>
<path d="M14.8335 8C13.5448 8 12.5001 9.04467 12.5001 10.3333V13.6667C12.5001 14.9553 13.5448 16 14.8335 16C16.1221 16 17.1668 14.9553 17.1668 13.6667V10.3333C17.1668 9.04467 16.1221 8 14.8335 8Z" fill="#202020"/>
<path d="M7.65906 10.574C7.9067 10.3679 7.89524 9.94586 7.63348 9.63139C7.37171 9.31692 6.95877 9.22912 6.71113 9.43519C6.46351 9.64132 6.47496 10.0634 6.73673 10.3779C6.99849 10.6923 7.41143 10.7801 7.65906 10.574Z" fill="#F6F6F6"/>
<path d="M16.3235 10.574C16.5711 10.3679 16.5596 9.94586 16.2979 9.63139C16.0361 9.31692 15.6231 9.22912 15.3755 9.43519C15.1279 9.64132 15.1393 10.0634 15.4011 10.3779C15.6629 10.6923 16.0758 10.7801 16.3235 10.574Z" fill="#F6F6F6"/>
</svg>
