<svg width="28" height="28" viewBox="0 0 28 28" fill="none" xmlns="http://www.w3.org/2000/svg">
<path d="M6.99999 22.1666H10.5V15.1666H17.5V22.1666H21V11.6666L14 6.41665L6.99999 11.6666V22.1666ZM6.99999 24.5C6.35832 24.5 5.80921 24.2717 5.35266 23.8151C4.89532 23.3578 4.66666 22.8083 4.66666 22.1666V11.6666C4.66666 11.2972 4.74949 10.9472 4.91516 10.6166C5.08005 10.2861 5.30832 10.0139 5.59999 9.79998L12.6 4.54998C12.8139 4.39442 13.0375 4.27776 13.2708 4.19998C13.5042 4.1222 13.7472 4.08331 14 4.08331C14.2528 4.08331 14.4958 4.1222 14.7292 4.19998C14.9625 4.27776 15.1861 4.39442 15.4 4.54998L22.4 9.79998C22.6917 10.0139 22.9203 10.2861 23.086 10.6166C23.2509 10.9472 23.3333 11.2972 23.3333 11.6666V22.1666C23.3333 22.8083 23.105 23.3578 22.6485 23.8151C22.1912 24.2717 21.6417 24.5 21 24.5H15.1667V17.5H12.8333V24.5H6.99999Z" fill="#848484"/>
</svg>
