<svg width="12" height="12" viewBox="0 0 12 12" fill="none" xmlns="http://www.w3.org/2000/svg">
<g clip-path="url(#clip0_121_934)">
<path fill-rule="evenodd" clip-rule="evenodd" d="M8.33502 6.565C9.02002 7.03 9.50002 7.66 9.50002 8.5V10H11C11.275 10 11.5 9.775 11.5 9.5V8.5C11.5 7.41 9.71502 6.765 8.33502 6.565Z" fill="#848484"/>
<path d="M4.5 6C5.60457 6 6.5 5.10457 6.5 4C6.5 2.89543 5.60457 2 4.5 2C3.39543 2 2.5 2.89543 2.5 4C2.5 5.10457 3.39543 6 4.5 6Z" fill="#848484"/>
<path fill-rule="evenodd" clip-rule="evenodd" d="M7.50002 6C8.60502 6 9.50002 5.105 9.50002 4C9.50002 2.895 8.60502 2 7.50002 2C7.26502 2 7.04502 2.05 6.83502 2.12C7.25002 2.635 7.50002 3.29 7.50002 4C7.50002 4.71 7.25002 5.365 6.83502 5.88C7.04502 5.95 7.26502 6 7.50002 6Z" fill="#848484"/>
<path fill-rule="evenodd" clip-rule="evenodd" d="M4.5 6.5C3.165 6.5 0.5 7.17 0.5 8.5V9.5C0.5 9.775 0.725 10 1 10H8C8.275 10 8.5 9.775 8.5 9.5V8.5C8.5 7.17 5.835 6.5 4.5 6.5Z" fill="#848484"/>
</g>
<defs>
<clipPath id="clip0_121_934">
<rect width="12" height="12" fill="white"/>
</clipPath>
</defs>
</svg>
