<svg width="29" height="28" viewBox="0 0 29 28" fill="none" xmlns="http://www.w3.org/2000/svg">
<g clip-path="url(#clip0_78_84)">
<path d="M7.50002 11.6667C6.21669 11.6667 5.16669 12.7167 5.16669 14C5.16669 15.2834 6.21669 16.3334 7.50002 16.3334C8.78335 16.3334 9.83335 15.2834 9.83335 14C9.83335 12.7167 8.78335 11.6667 7.50002 11.6667ZM21.5 11.6667C20.2167 11.6667 19.1667 12.7167 19.1667 14C19.1667 15.2834 20.2167 16.3334 21.5 16.3334C22.7834 16.3334 23.8334 15.2834 23.8334 14C23.8334 12.7167 22.7834 11.6667 21.5 11.6667ZM14.5 11.6667C13.2167 11.6667 12.1667 12.7167 12.1667 14C12.1667 15.2834 13.2167 16.3334 14.5 16.3334C15.7834 16.3334 16.8334 15.2834 16.8334 14C16.8334 12.7167 15.7834 11.6667 14.5 11.6667Z" fill="#848484"/>
</g>
<defs>
<clipPath id="clip0_78_84">
<rect width="28" height="28" fill="white" transform="translate(0.5)"/>
</clipPath>
</defs>
</svg>
