<svg width="25" height="24" viewBox="0 0 25 24" fill="none" xmlns="http://www.w3.org/2000/svg">
<path d="M12.3801 17.9475C12.4249 17.9812 12.4683 18.0165 12.5101 18.0534C12.5529 18.0165 12.5971 17.9812 12.6427 17.9475C14.0347 16.9784 15.6902 16.4588 17.3864 16.4588C19.0826 16.4588 20.7381 16.9784 22.1301 17.9475C22.4039 18.1535 22.6253 18.4211 22.7765 18.7286C22.9276 19.0361 23.0043 19.3749 23.0002 19.7175V22.5H2.00013V19.74C1.99628 19.3919 2.07518 19.0478 2.23035 18.7362C2.38552 18.4246 2.61252 18.1542 2.89263 17.9475C4.28469 16.9784 5.94019 16.4588 7.63638 16.4588C9.3326 16.4588 10.9881 16.9784 12.3801 17.9475Z" fill="#BDBDBD"/>
<path d="M8.50242 5.94752H6.77742C6.32046 5.94415 5.86814 6.0393 5.45127 6.22651C5.0344 6.41371 4.66277 6.68856 4.3617 7.03233C4.06063 7.37611 3.83718 7.78072 3.70659 8.21865C3.576 8.65657 3.54132 9.11752 3.60492 9.57L3.6554 10.3362C3.04435 10.4342 2.57751 10.9638 2.57751 11.6025C2.57751 12.2985 3.13196 12.865 3.82327 12.8845L3.89742 14.01C3.99357 14.7385 4.35053 15.4074 4.90215 15.8928C5.29178 16.2357 5.75987 16.4706 6.26013 16.5799V17.28C6.26013 17.6401 6.40315 17.9854 6.65773 18.2399C6.91231 18.4945 7.2576 18.6375 7.61763 18.6375C7.97766 18.6375 8.32295 18.4945 8.5775 18.2399C8.83213 17.9854 8.97515 17.6401 8.97515 17.28V16.5878C9.48935 16.4821 9.97092 16.2442 10.3702 15.8928C10.9218 15.4074 11.2788 14.7385 11.3749 14.01L11.4453 12.8831C11.8951 12.8588 12.2832 12.6028 12.4925 12.2323C12.7069 12.6119 13.1093 12.8714 13.5732 12.8845L13.6474 14.01C13.7436 14.7385 14.1005 15.4074 14.6521 15.8928C15.0417 16.2357 15.5099 16.4706 16.0102 16.5799V17.28C16.0102 17.6401 16.1532 17.9854 16.4077 18.2399C16.6624 18.4945 17.0076 18.6375 17.3677 18.6375C17.7276 18.6375 18.073 18.4945 18.3275 18.2399C18.5821 17.9854 18.7251 17.6401 18.7251 17.28V16.5878C19.2393 16.4821 19.7209 16.2442 20.1202 15.8928C20.6719 15.4074 21.0288 14.7385 21.1249 14.01L21.1954 12.8831C21.8709 12.8466 22.4075 12.2872 22.4075 11.6025C22.4075 10.9724 21.9532 10.4485 21.3543 10.3404L21.4024 9.57C21.4632 9.11977 21.4273 8.66175 21.2971 8.22652C21.1668 7.7913 20.9452 7.38882 20.6471 7.04599C20.349 6.70316 19.9813 6.42785 19.5683 6.23843C19.1553 6.04901 18.7067 5.94984 18.2524 5.94752H16.5274C16.0704 5.94415 15.6181 6.0393 15.2013 6.22651C14.7844 6.41371 14.4128 6.68856 14.1117 7.03233C13.8106 7.37611 13.5872 7.78072 13.4566 8.21865C13.326 8.65657 13.2913 9.11752 13.3549 9.57L13.4054 10.3362C13.0133 10.3991 12.6806 10.6396 12.4925 10.9727C12.3084 10.6467 11.9857 10.4092 11.6043 10.3404L11.6524 9.57C11.7133 9.11977 11.6773 8.66175 11.547 8.22652C11.4168 7.7913 11.1952 7.38882 10.8971 7.04599C10.599 6.70316 10.2313 6.42785 9.8183 6.23843C9.40535 6.04901 8.9567 5.94984 8.50242 5.94752Z" fill="#FFDF6C"/>
</svg>
