<svg width="20" height="20" viewBox="0 0 20 20" fill="none" xmlns="http://www.w3.org/2000/svg">
<path fill-rule="evenodd" clip-rule="evenodd" d="M17.675 6.5827V13.3752C17.675 15.8919 16.1 17.6669 13.5834 17.6669H6.37502C3.85835 17.6669 2.29169 15.8919 2.29169 13.3752V6.5827C2.29169 4.06604 3.86669 2.29187 6.37502 2.29187H13.5834C16.1 2.29187 17.675 4.06604 17.675 6.5827Z" stroke="#606060" stroke-width="1.5" stroke-linecap="round" stroke-linejoin="round"/>
<path d="M4.40112 13.6924L5.67446 12.3483C6.11696 11.8791 6.85446 11.8566 7.32446 12.2983C7.33862 12.3124 8.10529 13.0916 8.10529 13.0916C8.56779 13.5624 9.32362 13.5699 9.79446 13.1083C9.82529 13.0783 11.7395 10.7566 11.7395 10.7566C12.2328 10.1574 13.1186 10.0716 13.7186 10.5658C13.7586 10.5991 15.567 12.4549 15.567 12.4549" stroke="#606060" stroke-width="1.5" stroke-linecap="round" stroke-linejoin="round"/>
<path fill-rule="evenodd" clip-rule="evenodd" d="M8.59387 7.61096C8.59387 8.41846 7.9397 9.07263 7.1322 9.07263C6.3247 9.07263 5.67053 8.41846 5.67053 7.61096C5.67053 6.80346 6.3247 6.14929 7.1322 6.14929C7.9397 6.15013 8.59387 6.80346 8.59387 7.61096Z" stroke="#606060" stroke-width="1.5" stroke-linecap="round" stroke-linejoin="round"/>
</svg>
