<svg width="20" height="20" viewBox="0 0 20 20" fill="none" xmlns="http://www.w3.org/2000/svg">
<path d="M11.4584 19H8.08341C7.85841 19 7.66341 18.925 7.49841 18.775C7.33341 18.625 7.23591 18.4375 7.20591 18.2125L6.93591 16.12C6.74091 16.045 6.55731 15.955 6.38511 15.85C6.21231 15.745 6.04341 15.6325 5.87841 15.5125L3.92091 16.3225C3.71091 16.3975 3.50091 16.405 3.29091 16.345C3.08091 16.285 2.91591 16.1575 2.79591 15.9625L1.13091 13.06C1.01091 12.865 0.973409 12.655 1.01841 12.43C1.06341 12.205 1.17591 12.025 1.35591 11.89L3.04341 10.6075C3.02841 10.5025 3.02091 10.4011 3.02091 10.3033V9.6958C3.02091 9.5986 3.02841 9.4975 3.04341 9.3925L1.35591 8.11C1.17591 7.975 1.06341 7.795 1.01841 7.57C0.973409 7.345 1.01091 7.135 1.13091 6.94L2.79591 4.0375C2.90091 3.8275 3.06201 3.6961 3.27921 3.6433C3.49701 3.5911 3.71091 3.6025 3.92091 3.6775L5.87841 4.4875C6.04341 4.3675 6.21591 4.255 6.39591 4.15C6.57591 4.045 6.75591 3.955 6.93591 3.88L7.20591 1.7875C7.23591 1.5625 7.33341 1.375 7.49841 1.225C7.66341 1.075 7.85841 1 8.08341 1H11.4584C11.6834 1 11.8784 1.075 12.0434 1.225C12.2084 1.375 12.3059 1.5625 12.3359 1.7875L12.6059 3.88C12.8009 3.955 12.9848 4.045 13.1576 4.15C13.3298 4.255 13.4984 4.3675 13.6634 4.4875L15.6209 3.6775C15.8309 3.6025 16.0409 3.595 16.2509 3.655C16.4609 3.715 16.6259 3.8425 16.7459 4.0375L18.4109 6.94C18.5309 7.135 18.5684 7.345 18.5234 7.57C18.4784 7.795 18.3659 7.975 18.1859 8.11L16.4984 9.3925C16.5134 9.4975 16.5209 9.5986 16.5209 9.6958V10.3033C16.5209 10.4011 16.5059 10.5025 16.4759 10.6075L18.1634 11.89C18.3434 12.025 18.4559 12.205 18.5009 12.43C18.5459 12.655 18.5084 12.865 18.3884 13.06L16.7234 15.94C16.6034 16.135 16.4348 16.2664 16.2176 16.3342C15.9998 16.4014 15.7859 16.3975 15.5759 16.3225L13.6634 15.5125C13.4984 15.6325 13.3259 15.745 13.1459 15.85C12.9659 15.955 12.7859 16.045 12.6059 16.12L12.3359 18.2125C12.3059 18.4375 12.2084 18.625 12.0434 18.775C11.8784 18.925 11.6834 19 11.4584 19ZM9.81591 13.15C10.6859 13.15 11.4284 12.8425 12.0434 12.2275C12.6584 11.6125 12.9659 10.87 12.9659 10C12.9659 9.13 12.6584 8.3875 12.0434 7.7725C11.4284 7.1575 10.6859 6.85 9.81591 6.85C8.93091 6.85 8.18451 7.1575 7.57671 7.7725C6.96951 8.3875 6.66591 9.13 6.66591 10C6.66591 10.87 6.96951 11.6125 7.57671 12.2275C8.18451 12.8425 8.93091 13.15 9.81591 13.15ZM9.81591 11.35C9.44091 11.35 9.12231 11.2186 8.86011 10.9558C8.59731 10.6936 8.46591 10.375 8.46591 10C8.46591 9.625 8.59731 9.3064 8.86011 9.0442C9.12231 8.7814 9.44091 8.65 9.81591 8.65C10.1909 8.65 10.5098 8.7814 10.7726 9.0442C11.0348 9.3064 11.1659 9.625 11.1659 10C11.1659 10.375 11.0348 10.6936 10.7726 10.9558C10.5098 11.2186 10.1909 11.35 9.81591 11.35ZM8.87091 17.2H10.6484L10.9634 14.815C11.4284 14.695 11.8598 14.5186 12.2576 14.2858C12.6548 14.0536 13.0184 13.7725 13.3484 13.4425L15.5759 14.365L16.4534 12.835L14.5184 11.3725C14.5934 11.1625 14.6459 10.9411 14.6759 10.7083C14.7059 10.4761 14.7209 10.24 14.7209 10C14.7209 9.76 14.7059 9.5236 14.6759 9.2908C14.6459 9.0586 14.5934 8.8375 14.5184 8.6275L16.4534 7.165L15.5759 5.635L13.3484 6.58C13.0184 6.235 12.6548 5.9461 12.2576 5.7133C11.8598 5.4811 11.4284 5.305 10.9634 5.185L10.6709 2.8H8.89341L8.57841 5.185C8.11341 5.305 7.68231 5.4811 7.28511 5.7133C6.88731 5.9461 6.52341 6.2275 6.19341 6.5575L3.96591 5.635L3.08841 7.165L5.02341 8.605C4.94841 8.83 4.89591 9.055 4.86591 9.28C4.83591 9.505 4.82091 9.745 4.82091 10C4.82091 10.24 4.83591 10.4725 4.86591 10.6975C4.89591 10.9225 4.94841 11.1475 5.02341 11.3725L3.08841 12.835L3.96591 14.365L6.19341 13.42C6.52341 13.765 6.88731 14.0536 7.28511 14.2858C7.68231 14.5186 8.11341 14.695 8.57841 14.815L8.87091 17.2Z" fill="currentColor"/>
</svg>
