<svg width="25" height="24" viewBox="0 0 25 24" fill="none" xmlns="http://www.w3.org/2000/svg">
<path d="M21.3575 6.75H17.525C17.3375 6.75 17.18 6.88055 17.1275 7.06485C16.985 7.56397 16.5275 7.9326 15.995 7.9326C15.4625 7.9326 15.005 7.5717 14.8625 7.06485C14.81 6.88055 14.6525 6.75 14.465 6.75H3.6425C2.735 6.75 2 7.50255 2 8.43173V16.3183C2 17.2474 2.735 18 3.6425 18H14.465C14.6525 18 14.81 17.8694 14.8625 17.6852C15.005 17.186 15.4625 16.8174 15.995 16.8174C16.5275 16.8174 16.985 17.1783 17.1275 17.6852C17.18 17.8694 17.3375 18 17.525 18H21.3575C22.265 18 23 17.2474 23 16.3183V8.43173C23 7.50255 22.265 6.75 21.3575 6.75ZM15.995 15.4812C15.3425 15.4812 14.7502 14.9241 14.7502 14.256C14.7502 13.5879 15.3425 13.0546 15.995 13.0546C16.6475 13.0546 17.1919 13.5879 17.1919 14.256C17.1919 14.9241 16.6475 15.4812 15.995 15.4812ZM15.995 11.7031C15.3425 11.7031 14.7588 11.1578 14.7588 10.4897C14.7588 9.8217 15.3425 9.27645 15.995 9.27645C16.6475 9.27645 17.2109 9.8217 17.2109 10.4897C17.211 11.1578 16.6475 11.7031 15.995 11.7031Z" fill="#FFDF6C"/>
<path d="M8.08708 10.5H4.91291C4.54636 10.5 4.25 10.1765 4.25 9.77625C4.25 9.37605 4.54636 9.05243 4.91291 9.05243H8.08708C8.45368 9.05243 8.75 9.37605 8.75 9.77625C8.75 10.1849 8.45368 10.5 8.08708 10.5Z" fill="#FFB646"/>
<path d="M4.6879 14.25H12.0697C12.3043 14.25 12.5076 14.0826 12.4998 13.875C12.4998 13.6674 12.3043 13.5 12.0619 13.5H4.6879C4.44549 13.5 4.25 13.6674 4.25 13.875C4.25 14.0826 4.44549 14.25 4.6879 14.25Z" fill="#FFB646"/>
<path d="M4.6879 15.75H12.0697C12.3043 15.75 12.5076 15.5759 12.4998 15.375C12.4998 15.1674 12.3043 15 12.0619 15H4.6879C4.44549 15 4.25 15.1674 4.25 15.375C4.25 15.5826 4.44549 15.75 4.6879 15.75Z" fill="#FFB646"/>
<path d="M19.0539 12.75H20.9461C21.2529 12.75 21.5 12.9971 21.5 13.3039V15.1961C21.5 15.5029 21.2529 15.75 20.9461 15.75H19.0539C18.7471 15.75 18.5 15.5029 18.5 15.1961V13.3039C18.5 12.9971 18.7471 12.75 19.0539 12.75Z" fill="#FFB646"/>
</svg>
